<?xml version="1.0" encoding="utf-8"?>
<!-- Generator: Adobe Illustrator 22.1.0, SVG Export Plug-In . SVG Version: 6.00 Build 0)  -->
<svg version="1.1" id="Layer_1" xmlns="http://www.w3.org/2000/svg" xmlns:xlink="http://www.w3.org/1999/xlink" x="0px" y="0px"
	 viewBox="0 0 1080 1080" style="enable-background:new 0 0 1080 1080;" xml:space="preserve">
<metadata><?xpacket begin="﻿" id="W5M0MpCehiHzreSzNTczkc9d"?>
<x:xmpmeta xmlns:x="adobe:ns:meta/" x:xmptk="Adobe XMP Core 5.6-c143 79.161356, 2017/09/07-01:11:22        ">
   <rdf:RDF xmlns:rdf="http://www.w3.org/1999/02/22-rdf-syntax-ns#">
      <rdf:Description rdf:about=""/>
   </rdf:RDF>
</x:xmpmeta>
                                                                                                    
                                                                                                    
                                                                                                    
                                                                                                    
                                                                                                    
                                                                                                    
                                                                                                    
                                                                                                    
                                                                                                    
                                                                                                    
                                                                                                    
                                                                                                    
                                                                                                    
                                                                                                    
                                                                                                    
                                                                                                    
                                                                                                    
                                                                                                    
                                                                                                    
                                                                                                    
                           
<?xpacket end="w"?></metadata>
<style type="text/css">
	.st0{clip-path:url(#SVGID_2_);fill:url(#SVGID_3_);}
</style>
<g>
	<g>
		<defs>
			<rect id="SVGID_1_" x="-0.1" width="1080" height="1080"/>
		</defs>
		<clipPath id="SVGID_2_">
			<use xlink:href="#SVGID_1_"  style="overflow:visible;"/>
		</clipPath>
		
			<linearGradient id="SVGID_3_" gradientUnits="userSpaceOnUse" x1="12.5" y1="642.35" x2="1061.1" y2="642.35" gradientTransform="matrix(1 0 0 -1 0 1080)">
			<stop  offset="0" style="stop-color:#8593E5"/>
			<stop  offset="0.1627" style="stop-color:#8390E0"/>
			<stop  offset="0.342" style="stop-color:#7C89D3"/>
			<stop  offset="0.5291" style="stop-color:#717CBD"/>
			<stop  offset="0.7217" style="stop-color:#62699E"/>
			<stop  offset="0.9166" style="stop-color:#4F5277"/>
			<stop  offset="1" style="stop-color:#454764"/>
		</linearGradient>
		<path class="st0" d="M628.7,437h-3.6V235.9l3.6,0.9V437z M386.7,177.9l-5.3-1.3v257.7l5.3,0.1V177.9z M274.9,150.7l-10.7-2.6v285
			l10.7,0.1V150.7z M328.9,163.8l-10.7-2.6v272.4l10.7,0.1V163.8z M403.8,182l-7.1-1.7v254.2l7.1,0.1V182z M462.2,196.2l-1.8-0.4
			v239.4h1.8V196.2z M453.3,194.1l-10.7-2.6V435l10.7,0.1V194.1z M364.5,172.5l-5.3-1.3v262.9l5.3,0.1V172.5z M78,102.7l-5.5-1.3
			v329.5L78,431V102.7z M221.3,137.6l-5.3-1.3v296.2l5.3,0.1V137.6z M28.8,430.4V100.8H12.5v329.4L28.8,430.4z M89.1,105.4l-5.5-1.3
			V431l5.5,0.1V105.4z M186.8,129.2l-10.9-2.7V432l10.9,0.1V129.2z M151.8,120.7l-8.2-2v313l8.2,0.1V120.7z M243.4,143l-5.3-1.3v291
			l5.3,0.1V143z M946.3,314.1l-2.2-0.5v126.9h2.2V314.1z M649.5,241.8l-1.8-0.4v195.8h1.8V241.8z M957.9,316.9l-2.5-0.6v124.3h2.5
			V316.9z M1050.3,339.4l-1.2-0.3v102.6h1.2V339.4z M995.5,326.1l-2.5-0.6V441h2.5V326.1z M901.2,303.1l-2.5-0.6V440h2.5V303.1z
			 M1008.4,329.2l-1.2-0.3v112.3h1.2V329.2z M931.4,310.5l-2.5-0.6v130.5h2.5V310.5z M740.5,264l-5.3-1.3v175.5l5.3,0.1V264z
			 M777.6,273l-1.8-0.4v166.1h1.8V273z M689.4,251.6l-3.6-0.9v187h3.6V251.6z M807.6,280.3l-3.6-0.9V439h3.6V280.3z M881.9,298.4
			l-1.8-0.4v141.8h1.8V298.4z M828,285.3l-1.8-0.4v154.3h1.8V285.3z M542.8-228.7l-8.2-6V-4.5l8.2,3.9V-228.7z M569.9-208.9l-10.9-8
			V7l10.9,5.2V-208.9z M476.7-260.9h-16.4v221.2l16.4,7.7V-260.9z M514.6-249.3l-2.7-2v236.1l2.7,1.3V-249.3z M447-260.9h-8.2v211
			L447-46V-260.9z M263.7-260.9h-5.1l-3.1,2.7v121.6l8.2,3.9V-260.9z M400.2-68.1v-192.8H392V-72L400.2-68.1z M226.9-150.1l16.4,7.7
			v-105.3l-16.4,14.1V-150.1z M332.3-260.9h-8.2v156.8l8.2,3.9V-260.9z M692.4-119.2l-2.7-2v190l2.7,1.3V-119.2z M598.4-188l-2.7-2
			V24.4l2.7,1.3V-188z M897.7,31.1l-5.5-4v137.6l5.5,2.6V31.1z M790.5-47.4l-5.5-4V114l5.5,2.6V-47.4z M916.5,44.8l-2.7-2v132
			l2.7,1.3V44.8z M812.7-31.1l-2.7-2v158.9l2.7,1.3V-31.1z M653.9-147.4l-5.5-4V49.3l5.5,2.6V-147.4z M631.1-164.1l-2.7-2V39.8
			l2.7,1.3V-164.1z M711-105.6l-5.5-4V76.3l5.5,2.6V-105.6z M732.3-90l-2.7-2V87.7l2.7,1.3V-90z M508.6,663.1l-8.2,1.8v262.3
			l8.2-3.7V663.1z M385.7,689.9l-16.4,3.6v292.9l16.4-7.4V689.9z M308.9,706.6L298,709v309.5l10.9-4.9V706.6z M543.6,655.5
			l-10.9,2.4v254.8l10.9-4.9V655.5z M588,645.8l-5.5,1.2v243.1l5.5-2.5V645.8z M627,637.3l-5.5,1.2v234.1l5.5-2.5V637.3z M115,748.9
			l-8.2,1.8v354.1l8.2-3.7V748.9z M34.2,766.5L17.8,770v366.2h16.4C34.2,1136.2,34.2,766.5,34.2,766.5z M243.2,720.9l-16.4,3.6
			v326.1l16.4-7.4V720.9z M125.5,746.6l-5.5,1.2v351l5.5-2.5V746.6z M145.6,742.2l-5.5,1.2v346.3l5.5-2.5V742.2z M434.9,679.2
			l-5.5,1.2v278.9l5.5-2.5V679.2z M897.8,578.3l-4.3,0.9v170.7l4.3-1.9V578.3z M1028.4,549.9l-2.1,0.5V690l2.1-1V549.9z
			 M937.2,569.8l-6.4,1.4v162l6.4-2.9V569.8z M988.7,558.5l-2.1,0.5v149l2.1-1V558.5z M1048.5,545.5l-2.1,0.5v135l2.1-1V545.5z
			 M1042,546.9l-2.1,0.5v136.5l2.1-1V546.9z M798.1,600l-10.9,2.4v195.4l10.9-4.9V600z M667.5,628.5l-2.7,0.6v224l2.7-1.2V628.5z
			 M717.2,617.7l-2.7,0.6v212.4l2.7-1.2V617.7z M844.6,589.9l-5.5,1.2v183.3l5.5-2.5V589.9z M648.5,632.6l-5.5,1.2v229.1l5.5-2.5
			V632.6z M873.7,583.6l-2.7,0.6v175.9l2.7-1.2V583.6z M604.8,28.7l-3.6-1.7v203.1l3.6,0.9V28.7z M549.1,2.3l-3.6-1.7v215.9l3.6,0.9
			V2.3z M621.9,36.8l-1.8-0.8v198.8l1.8,0.4V36.8z M647.4,48.9l-3.6-1.7v193.3l3.6,0.9V48.9z M682.8,65.6l-7.1-3.4v186l7.1,1.7V65.6
			z M269-130.2l-7.1-3.4v281l7.1,1.7V-130.2z M410.8-63.1l-3.6-1.7v247.6l3.6,0.9V-63.1z M191.7,130.4l10.7,2.6v-294.7l-10.7-5.1
			V130.4z M469.2-35.5l-5.3-2.5v234.6l5.3,1.3V-35.5z M503.7-19.1l-7.1-3.4v227.1l7.1,1.7V-19.1z M903.1,169.8l-5-2.4v134.9l5,1.2
			V169.8z M1003.2,217.2l-1.2-0.6v111.1l1.2,0.3V217.2z M986.6,209.3l-2.5-1.2v115.2l2.5,0.6V209.3z M1040.3,234.7l-2.1-1v102.7
			l2.1,0.5V234.7z M964.4,198.8l-5-2.4v120.8l5,1.2V198.8z M1016.4,223.4l-2.5-1.2v108.3l2.5,0.6V223.4z M862.9,150.8l-1.8-0.8
			v143.4l1.8,0.4V150.8z M798,120.1l-3.6-1.7v158.7l3.6,0.9V120.1z M843.1,141.4l-3.6-1.7v148.4l3.6,0.9V141.4z M869.7,154l-3.6-1.7
			v142.3l3.6,0.9V154z M773.5,108.5l-7.1-3.4v165.2l7.1,1.7V108.5z M54.5,430.7l-7.7-0.1v333.1l7.7-1.7V430.7z M12.7,771.1l1.8-0.4
			V430.3h-1.8V771.1z M37.3,430.5l-5.8-0.1V767l5.8-1.3V430.5z M1061.1,441.8h-2.5v101.5l2.5-0.5V441.8z M1030.9,441.5h-2.5V550
			l2.5-0.5V441.5z M1019.8,441.3h-2.2v110.9l2.2-0.5V441.3z"/>
	</g>
</g>
</svg>
