<?xml version="1.0" encoding="utf-8"?>
<!-- Generator: Adobe Illustrator 22.1.0, SVG Export Plug-In . SVG Version: 6.00 Build 0)  -->
<svg version="1.1" id="Layer_1" xmlns="http://www.w3.org/2000/svg" xmlns:xlink="http://www.w3.org/1999/xlink" x="0px" y="0px"
	 viewBox="0 0 300 100" style="enable-background:new 0 0 300 100;" xml:space="preserve">
<metadata><?xpacket begin="﻿" id="W5M0MpCehiHzreSzNTczkc9d"?>
<x:xmpmeta xmlns:x="adobe:ns:meta/" x:xmptk="Adobe XMP Core 5.6-c143 79.161356, 2017/09/07-01:11:22        ">
   <rdf:RDF xmlns:rdf="http://www.w3.org/1999/02/22-rdf-syntax-ns#">
      <rdf:Description rdf:about=""/>
   </rdf:RDF>
</x:xmpmeta>
                                                                                                    
                                                                                                    
                                                                                                    
                                                                                                    
                                                                                                    
                                                                                                    
                                                                                                    
                                                                                                    
                                                                                                    
                                                                                                    
                                                                                                    
                                                                                                    
                                                                                                    
                                                                                                    
                                                                                                    
                                                                                                    
                                                                                                    
                                                                                                    
                                                                                                    
                                                                                                    
                           
<?xpacket end="w"?></metadata>
<style type="text/css">
	.st0{fill:#FFFFFF;}
</style>
<path class="st0" d="M41.4,78.5l-6.6,17.6h-3.2L17.4,54c-2.5-6.8-5.2-9.4-9.4-9.9v-0.7h28.8v0.7c-2.7,0.2-4.2,1.5-4.2,4
	c0,1.4,0.7,3.8,1.7,6.9L41.4,78.5z M71.5,78.5l-6.6,17.6h-3.2l-14.9-44c-1.8-5.4-3.3-7.6-7.1-8.1v-0.7h27.8v0.7
	c-3.1,0.2-4.7,1.7-4.7,4.1c0,1.4,0.5,3.8,1.5,6.8L71.5,78.5z M82.7,53.7c0-6.9-1.8-8.9-6.6-9.6v-0.7h28.1v0.7
	c-4.3,0.7-6.6,2.3-6.6,9.6v31.8c0,7.2,2.2,8.9,6.6,9.6v0.7H76.2v-0.7c4.7-0.7,6.6-2.8,6.6-9.6V53.7z M243,51.8
	c-1.3-1.8-2.8-3.7-4.7-5.2c-1.7-1.4-3.7-2.3-6.2-2.7v-0.7h24.2l27,35.7v16.9H276L243,51.8z M233.4,95.7V95c3.2-0.4,5.8-2.1,7.7-4.7
	c1.7-2.4,3-8.3,3-11.2h0.8c0,2.9,1.3,8.6,3,11.1c2.2,3.1,5.7,4.5,8.6,4.9v0.7H233.4z M294,43.3V44c-3.2,0.4-5.8,2-7.7,4.7
	c-1.7,2.3-3,7.6-3,10.6h-0.8c0-2.9-1.2-8.1-3-10.4c-2.2-3.1-5.7-4.6-8.6-4.9v-0.7H294z M211.3,83.1c-13.8-1-22-9.8-21.7-21.5
	c0.3-12.8,11.2-19.4,20.9-20.1l0,0.5c-0.8,0.1-2.3,0.6-3.2,1.3c-3,2.2-4.8,7.1-5.1,17.8c-0.3,10.1,1.1,17.4,5.8,20.3
	c1,0.5,2.2,1,3.3,1.1L211.3,83.1z M212.8,41.5c13.8,0.9,22.1,9.8,21.8,21.5c-0.3,12.7-11.2,19.3-20.9,20.1l0-0.5
	c0.8-0.1,2.2-0.5,3.1-1.3c3-2.2,4.8-7.1,5.1-17.8c0.3-10-1.1-17.4-5.8-20.3c-1-0.5-2.2-1-3.3-1.1L212.8,41.5z M210.5,42.1
	c1.2-0.2,2.3,0,2.3,0s1.1-0.4,0-0.5c-1.1-0.1-2.3,0-2.3,0S209.2,42.3,210.5,42.1z M211.3,83.1c1.3,0.1,2.3,0,2.3,0s1.2-0.7,0-0.5
	c-1.2,0.2-2.3,0-2.3,0S210,83,211.3,83.1z M212.1,88.7c-2,0-3.6,1.6-3.6,3.6s1.6,3.6,3.6,3.6c2,0,3.6-1.6,3.6-3.6
	S214.1,88.7,212.1,88.7z M171.6,63.2c-6.5-3.7-11.9-6.2-11.9-12.2c0-4.7,2.2-7,5.7-7.5c1.2-0.2,2.8,0,2.8,0
	c6.7,1.5,10.7,8.1,13.1,15h0.7l-0.7-13.8c-2.6-0.9-9.5-1.9-12.8-2c0,0,0,0,0,0c-2-0.1-3.2,0-3.2,0v0c-8.5,0.6-18,5.4-18,15.7
	c0,8.2,5.7,12.9,12.5,16.5c7.6,4.3,12.1,6.7,12.1,12.1c0,5-2.9,7.9-6.9,8.5v0.8c11.1-0.6,19.5-6.2,19.5-17.1
	C184.6,70.3,178,66.9,171.6,63.2z M153,79.2c-1.4,5-4,8.9-7.6,11.8c-2.8,2.2-6.2,3.7-9.5,4.3c-0.2,0-0.4,0-0.6,0.1c0,0,0,0,0,0
	c-0.4,0-1.4,0-3.5,0V53.7c0-7.3,2.7-8.9,7.6-9.6v-0.7h-29.1v0.7c4.7,0.7,6.6,2.7,6.6,9.6v31.8c0,6.8-1.8,8.9-6.6,9.6v0.7h21.5h3.8
	h16.8l1.1-16.6H153z M180.9,57.5c0,0,0.6,1.6,0.6,1.7h0.1h0.5l-0.1-1.5L180.9,57.5z M130.1,5.8h-4.8V3.5h12.2v2.2h-4.8v12.7h-2.7
	V5.8z M157.1,3.5v15h-2.7v-6.6h-7.3v6.6h-2.7v-15h2.7v6.2h7.3V3.5H157.1z M165.6,3.5h10.8v2.2h-8.1v3.9h7.6v2.2h-7.6v4.4h8.1v2.2
	h-10.8V3.5z"/>
</svg>
